<svg width="73" height="73" viewBox="0 0 73 73" fill="none" xmlns="http://www.w3.org/2000/svg">
<path d="M60.9296 28.7699C60.9296 25.7499 60.9496 25.7999 60.8896 25.5899L58.0196 15.2599C57.8796 14.7599 57.4296 14.4199 56.9096 14.4199H14.4196C13.8996 14.4199 13.4496 14.7599 13.3096 15.2599C10.2496 26.2999 10.3996 25.6599 10.3996 25.8899V28.7599C10.3996 31.2099 12.1196 33.2699 14.4196 33.7899V56.8699H11.5496C10.9196 56.8699 10.3996 57.3799 10.3996 58.0199C10.3996 58.6599 10.6496 59.1699 11.4796 59.1699L60.1796 59.0399C60.1796 59.0399 60.9196 58.6599 60.9196 58.0299C60.9196 57.3999 60.4096 56.8799 59.7696 56.8799H56.8996V33.7999C59.1996 33.2799 60.9196 31.2199 60.9196 28.7699H60.9296ZM54.6196 56.8799H37.0796V39.5199C37.0796 38.8899 36.5696 38.3699 35.9296 38.3699H22.1596C21.5296 38.3699 21.0096 38.8799 21.0096 39.5199V56.8799H16.7196V33.7999C17.8696 33.5399 18.8696 32.8899 19.5896 32.0099C21.6596 34.5699 25.5496 34.5699 27.6196 32.0099C29.6896 34.5699 33.5796 34.5699 35.6496 32.0099C37.7196 34.5699 41.6096 34.5699 43.6796 32.0099C45.7496 34.5699 49.6696 34.5699 51.7396 32.0099C52.4596 32.8999 53.4596 33.5399 54.6096 33.7999V56.8799H54.6196Z" fill="#203665"/>
</svg>
