<svg width="40" height="40" viewBox="0 0 40 40" fill="none" xmlns="http://www.w3.org/2000/svg">
<path d="M30.0172 6.72876H8.11579C6.08291 6.72876 4.43359 8.38355 4.43359 10.411V26.0329C4.43359 28.0657 6.08839 29.7151 8.11579 29.7151L12.4993 29.7315H22.4884C22.8062 29.7315 23.1021 29.874 23.2993 30.1205L26.6802 34.274C27.0199 34.6959 27.5952 34.8548 28.1048 34.674C28.6254 34.4877 28.9596 34.0164 28.9596 33.463V29.7315H30.0117C32.0446 29.7315 33.6939 28.0767 33.6939 26.0493V10.411C33.6939 8.37808 32.0391 6.72876 30.0117 6.72876H30.0172ZM21.1898 22.7781C21.1898 23.737 20.4117 24.5151 19.4528 24.5151C18.4939 24.5151 17.7158 23.737 17.7158 22.7781V18.7616C17.7158 17.8027 18.4939 17.0247 19.4528 17.0247C20.4117 17.0247 21.1898 17.8027 21.1898 18.7616V22.7781ZM19.4528 15.1342C18.4939 15.1342 17.7158 14.3562 17.7158 13.3973C17.7158 12.4383 18.4939 11.6603 19.4528 11.6603C20.4117 11.6603 21.1898 12.4383 21.1898 13.3973C21.1898 14.3562 20.4117 15.1342 19.4528 15.1342Z" fill="#203665"/>
</svg>
