<svg width="598" height="273" viewBox="0 0 598 273" fill="none" xmlns="http://www.w3.org/2000/svg">
<path d="M161.09 390.338C167.271 390.809 173.652 389.923 179.806 387.495L574.075 231.961C580.23 229.533 585.5 225.823 589.7 221.257L376.816 136.139L342.6 197.885C339.322 203.802 332.318 206.565 325.891 204.477L258.818 182.687L161.09 390.338ZM135.239 378.933C135.312 378.761 135.388 378.589 135.468 378.419L231.729 173.887L29.9956 108.352C29.5557 108.209 29.1276 108.046 28.712 107.865C28.2765 113.991 29.168 120.308 31.5655 126.404L124.849 363.564C127.22 369.592 130.816 374.773 135.239 378.933ZM600.839 195.259C601.241 189.197 600.343 182.952 597.972 176.923L504.688 -60.2373C502.291 -66.3326 498.641 -71.5614 494.151 -75.7441C493.97 -75.328 493.767 -74.9168 493.543 -74.5119L390.635 111.201L600.321 195.04C600.496 195.11 600.668 195.183 600.839 195.259ZM468.171 -87.0311C462.077 -87.4554 455.794 -86.5603 449.731 -84.1685L55.4617 71.3656C49.3985 73.7574 44.1941 77.3938 40.0255 81.867L323.543 173.971L468.171 -87.0311ZM45.108 45.0425L439.377 -110.492C475.668 -124.808 516.677 -106.951 530.973 -70.6062L624.256 166.554C638.552 202.899 620.721 243.968 584.429 258.284L190.16 413.818C153.869 428.135 112.86 410.278 98.5643 373.933L5.2809 136.772C-9.01467 100.428 8.81651 59.359 45.108 45.0425Z" fill="#7BA6B5" fill-opacity="0.45"/>
</svg>
