<svg width="40" height="40" viewBox="0 0 40 40" fill="none" xmlns="http://www.w3.org/2000/svg">
<g clip-path="url(#clip0_643_13174)">
<path d="M26.1808 33.5451C26.3123 33.2218 26.2411 32.8547 25.9945 32.6081C24.4822 31.0958 23.578 29.0903 23.452 26.9588C23.4246 26.4876 23.0246 26.1259 22.5424 26.1533C22.0712 26.1807 21.7096 26.5917 21.7369 27.0629C21.8301 28.6246 22.2849 30.1753 23.052 31.5396L23.5068 32.3561H5.34243L5.80271 31.5396C6.67394 29.9944 7.13421 28.2246 7.13421 26.4273V19.7205C7.13421 16.504 9.17257 13.6273 12.2082 12.5643C12.4274 12.4876 12.5972 12.3342 12.6959 12.1259C12.7945 11.9177 12.8109 11.6876 12.7342 11.4684C12.6575 11.2492 12.5041 11.0794 12.2959 10.9807C12.1753 10.9259 12.0493 10.8931 11.9233 10.8931C11.8301 10.8931 11.7315 10.9095 11.6383 10.9424C7.91229 12.241 5.41366 15.7698 5.41366 19.715V26.4218C5.41366 28.7561 4.50408 30.9533 2.85476 32.6027C2.60818 32.8492 2.53695 33.2164 2.66846 33.5396C2.79997 33.8629 3.11229 34.0711 3.46298 34.0711H13.5671V36.0273C13.5671 36.4985 13.9507 36.8876 14.4219 36.8876C14.8931 36.8876 15.2822 36.504 15.2822 36.0273V34.0711H25.3863C25.737 34.0711 26.0438 33.8629 26.1808 33.5396V33.5451Z" fill="#203665"/>
<path d="M26.7935 2C20.8977 2 16.0977 6.8 16.0977 12.6959C16.0977 18.5918 20.8977 23.3918 26.7935 23.3918C32.6894 23.3918 37.4894 18.5918 37.4894 12.6959C37.4894 6.8 32.6949 2 26.7935 2ZM26.7935 17.1123C26.1689 17.1123 25.6593 16.6027 25.6593 15.9781C25.6593 15.3534 26.1689 14.8438 26.7935 14.8438C27.4182 14.8438 27.9223 15.3534 27.9223 15.9781C27.9223 16.6027 27.4127 17.1123 26.7935 17.1123ZM27.9223 12.2301C27.9223 12.8548 27.4127 13.3644 26.7935 13.3644C26.1744 13.3644 25.6593 12.8548 25.6593 12.2301V9.41918C25.6593 8.79452 26.1689 8.28493 26.7935 8.28493C27.4182 8.28493 27.9223 8.79452 27.9223 9.41918V12.2301Z" fill="#203665"/>
</g>
<defs>
<clipPath id="clip0_643_13174">
<rect width="40" height="40" fill="white"/>
</clipPath>
</defs>
</svg>
