<svg width="115" height="27" viewBox="0 0 115 27" fill="none" xmlns="http://www.w3.org/2000/svg">
<path d="M12.9994 20.6651C10.0331 18.1989 7.50294 15.1431 4.59213 14.4373C3.22 14.1798 1.81615 14.2546 0.348845 14.6698L0.269531 14.6947L0.325051 14.6199C0.340914 14.6033 1.98271 12.6436 5.29802 12.5191C8.05814 12.4194 11.3814 13.4574 14.316 14.3791C15.5771 14.7777 16.7826 15.1514 17.8613 15.4171C16.2116 14.8109 14.8474 13.6318 13.4039 12.3945C10.6676 10.0363 7.82813 7.59496 2.6886 8.86544L2.60929 8.88205L2.66481 8.81562C2.68067 8.79901 4.32246 6.83102 7.58226 6.70646C10.382 6.60682 12.9597 7.678 15.236 8.63293C16.5685 9.18929 17.8375 9.72073 19.0114 9.94493C17.5996 9.50483 16.4733 8.27587 15.2916 6.98879C13.0232 4.51427 10.4455 1.7076 5.02836 3.0445L4.94904 3.06111L5.00456 2.99468C5.02042 2.97808 6.66222 1.01839 9.97753 0.893833C12.4838 0.802492 14.2129 1.7076 15.8864 2.5878C17.552 3.45969 19.2731 4.3648 21.7715 4.27346C24.2699 4.18212 25.9434 3.39326 27.5614 2.62932C29.1794 1.86537 30.8608 1.07652 33.3592 0.985174C38.4432 0.794188 42.7103 5.36956 42.8769 11.1739C42.98 14.7528 41.4968 18.1158 38.9191 20.1668L38.816 20.2416C39.5933 19.2119 40.1326 17.9331 40.3309 16.5298C40.3309 16.5215 40.3388 16.5049 40.3388 16.4966C40.3468 16.4219 40.3547 16.3471 40.3626 16.2641C40.3706 16.2143 40.3785 16.1644 40.3785 16.1063C40.3864 16.0482 40.3864 15.9901 40.3944 15.9402C40.4023 15.8655 40.4023 15.7991 40.4102 15.7243C40.4102 15.6745 40.4102 15.633 40.4181 15.5832C40.4181 15.5001 40.4261 15.4254 40.4261 15.3424C40.4261 15.3258 40.4261 15.3092 40.4261 15.2925C40.4261 15.2593 40.4261 15.2344 40.4261 15.2012C40.4261 15.1514 40.4261 15.1016 40.4261 15.0434C40.4261 15.0185 40.4261 14.9853 40.4181 14.9604C40.4181 14.9106 40.4102 14.8607 40.4102 14.8109C40.4023 14.7362 40.4023 14.6532 40.3944 14.5784C40.3944 14.5286 40.3864 14.4788 40.3785 14.4373C40.3706 14.3625 40.3626 14.2795 40.3547 14.2048C40.3468 14.1632 40.3468 14.1134 40.3388 14.0719C40.3309 13.9889 40.315 13.9141 40.2992 13.8311C40.2912 13.7896 40.2833 13.748 40.2754 13.7065C40.2595 13.6235 40.2437 13.5405 40.2278 13.4574C40.2199 13.4242 40.2119 13.3827 40.204 13.3495C40.1802 13.2581 40.1643 13.1751 40.1405 13.0837C40.1326 13.0588 40.1247 13.0256 40.1168 13.0007C40.093 12.9094 40.0612 12.8097 40.0295 12.7184C40.0216 12.7018 40.0136 12.6769 40.0136 12.6603C39.9819 12.5606 39.9423 12.4527 39.9105 12.353C39.9105 12.3447 39.9026 12.3364 39.9026 12.3281C39.6091 11.5392 39.2046 10.8168 38.705 10.1857C38.697 10.1774 38.6891 10.1608 38.6812 10.1525C38.6177 10.0778 38.5622 10.0031 38.4988 9.92832C38.4829 9.91171 38.467 9.8868 38.4512 9.87019C38.3956 9.80376 38.3401 9.74564 38.2767 9.68751C38.2529 9.6626 38.2291 9.63769 38.2053 9.61278C38.1498 9.56295 38.1022 9.50483 38.0467 9.45501C38.0149 9.43009 37.9911 9.39688 37.9594 9.37197C37.9118 9.32215 37.8563 9.28063 37.8087 9.2308C37.777 9.19759 37.7453 9.17268 37.7056 9.14777C37.658 9.10625 37.6104 9.06473 37.5549 9.03151C37.5153 8.9983 37.4756 8.97339 37.4439 8.94017C37.3963 8.90696 37.3487 8.87374 37.3011 8.83222C37.2615 8.79901 37.2139 8.7741 37.1742 8.74088C37.1266 8.70767 37.079 8.68275 37.0394 8.64954C36.9918 8.62463 36.9521 8.59141 36.9045 8.5665C36.857 8.54159 36.8173 8.51668 36.7697 8.48347C36.7221 8.45855 36.6745 8.42534 36.6269 8.40043C36.5794 8.37552 36.5397 8.35061 36.4921 8.334C36.4445 8.30909 36.389 8.28418 36.3414 8.25926C36.3018 8.24266 36.2542 8.21775 36.2066 8.20114C36.1511 8.17623 36.0955 8.15132 36.048 8.1264C36.0083 8.1098 35.9607 8.09319 35.9211 8.07658C35.8655 8.05167 35.81 8.03506 35.7466 8.01015C35.7069 7.99354 35.6673 7.98524 35.6276 7.96863C35.4134 7.8939 35.1914 7.83577 34.9693 7.79425C34.9217 7.78595 34.8741 7.77765 34.8265 7.76934C34.771 7.76104 34.7076 7.75273 34.652 7.74443C34.6044 7.73613 34.5569 7.72782 34.5013 7.71952C34.4458 7.71122 34.3824 7.71122 34.3189 7.70291C34.2793 7.70291 34.2396 7.69461 34.1999 7.69461C34.192 7.69461 34.1762 7.69461 34.1682 7.69461C34.1286 7.69461 34.081 7.6863 34.0413 7.6863C33.962 7.6863 33.8827 7.678 33.7954 7.678C33.7875 7.678 33.7875 7.678 33.7796 7.678C33.7717 7.678 33.7637 7.678 33.7558 7.678C33.6923 7.678 33.621 7.678 33.5575 7.678C33.5178 7.678 33.4861 7.6863 33.4544 7.6863C33.4385 7.6863 33.4147 7.6863 33.3989 7.6863C33.3037 7.69461 33.2085 7.70291 33.1054 7.71122C33.0816 7.71122 33.0658 7.71952 33.042 7.71952C32.9468 7.72782 32.8595 7.74443 32.7644 7.76104C30.385 8.17623 28.418 10.028 27.5693 12.5191C27.5693 12.5274 27.5614 12.5357 27.5614 12.544C27.5614 12.5523 27.5614 12.5606 27.5535 12.5606C27.2838 13.3578 27.1331 14.2131 27.1172 15.1099C27.1172 15.1265 27.1172 15.1431 27.1172 15.1597C27.1172 15.2012 27.1172 15.2344 27.1172 15.2759C27.1172 15.3507 27.1172 15.4254 27.1252 15.4918C27.1252 15.5001 27.1252 15.5001 27.1252 15.5084V15.5167C27.1569 16.7208 27.4345 17.8501 27.9024 18.8549L27.9104 18.8632C28.6242 20.3744 29.7663 21.5702 31.1543 22.2511C30.2739 23.588 27.9104 26.1123 23.4609 26.1123C14.7681 26.1123 14.5381 20.7315 7.84399 23.0566C9.64441 21.3958 11.4052 20.7398 12.9994 20.6651Z" fill="#202E59"/>
<path d="M111.554 17.5509C111.149 17.4762 110.705 17.4429 110.221 17.4429C109.174 17.4429 108.5 17.8332 108.5 18.7799C108.5 19.7265 109.087 20.15 109.952 20.15C110.586 20.15 111.118 19.8178 111.546 19.4109V17.5509H111.554ZM114.139 14.9933V21.7443H113.061C112.244 21.7443 111.871 21.5616 111.697 20.7811C111.022 21.5616 110.134 21.8605 109 21.8605C107.263 21.8605 105.986 20.8558 105.986 18.9293C105.986 16.8866 107.549 15.8901 109.69 15.8901C110.451 15.8901 110.983 15.9649 111.554 16.1143V15.1843C111.554 14.2958 111.094 13.8308 109.857 13.8308C108.881 13.8308 108.064 14.1464 107.445 14.5948H106.716V12.6849C107.604 12.2614 108.683 11.8711 110.261 11.8711C112.831 11.8628 114.139 12.7513 114.139 14.9933ZM102.203 11.8628C100.965 11.8628 99.6885 12.386 98.8161 13.0503C98.713 12.2116 98.4592 12.0123 98.015 12.0123H96.2622V21.7526H98.8478V14.4785C99.4347 14.2543 100.156 14.0301 100.958 14.0301C101.751 14.0301 102.108 14.3124 102.108 15.2757V21.7526H104.693V14.5948C104.701 12.3943 103.543 11.8628 102.203 11.8628ZM92.3203 15.8486C92.2648 14.1214 91.7016 13.5651 90.6864 13.5651C89.7822 13.5651 89.0367 14.0301 88.8463 15.8486H92.3203ZM94.8742 16.6458C94.8742 16.9779 94.8425 17.3848 94.8425 17.4845H88.8146C88.9415 19.4358 89.8219 19.9673 91.2575 19.9673C92.3044 19.9673 93.1213 19.6185 93.7241 19.1535H94.5173V20.9305C93.7717 21.3789 92.7248 21.8771 90.8688 21.8771C87.8232 21.8771 86.1576 19.9839 86.1576 16.9198C86.1576 13.781 88.1087 11.8545 90.6943 11.8545C93.4227 11.8628 94.8742 13.4322 94.8742 16.6458ZM82.5409 13.1748C82.4537 12.2116 82.184 12.004 81.7398 12.004H79.987V21.7443H82.5726V14.711C83.0723 14.4287 83.9685 14.1381 85.2455 14.1381H85.6897V12.004C85.5152 11.9459 85.3169 11.9126 85.1265 11.9126C83.9765 11.9126 83.1278 12.5271 82.5409 13.1748ZM76.8858 8.37524C76.1086 8.37524 75.4661 9.02294 75.4661 9.8201C75.4661 10.6173 76.1006 11.2483 76.8858 11.2483C77.671 11.2483 78.2897 10.6173 78.2897 9.8201C78.2897 9.02294 77.6631 8.37524 76.8858 8.37524ZM77.1872 12.004H75.5772V21.7443H78.1628V13.7893C78.1549 12.3029 78.0359 12.004 77.1872 12.004ZM70.398 13.9388C68.9465 13.5485 68.1296 13.2329 68.1296 12.195C68.1296 11.1404 68.8593 10.692 70.1997 10.692C71.2625 10.692 72.0239 11.0657 72.6822 11.5639H73.5546V9.47134C72.7774 8.97311 71.5559 8.61605 70.0966 8.61605C67.5585 8.61605 65.7581 9.87822 65.7581 12.4026C65.7581 14.5948 66.8051 15.5746 69.0893 16.2804C70.509 16.7288 71.7463 16.8534 71.7463 18.2484C71.7463 19.2532 71.0166 19.8427 69.5096 19.8427C68.0582 19.8427 67.1144 19.2698 66.5671 18.6553H65.6629V20.8641C66.7099 21.4952 67.8282 21.9021 69.5969 21.9021C72.6425 21.9021 74.2367 20.4738 74.2367 17.9495C74.2447 15.5497 73.1105 14.6612 70.398 13.9388ZM58.3899 17.5509C57.9854 17.4762 57.5412 17.4429 57.0574 17.4429C56.0105 17.4429 55.3363 17.8332 55.3363 18.7799C55.3363 19.7265 55.9232 20.15 56.7877 20.15C57.4222 20.15 57.9536 19.8178 58.3819 19.4109V17.5509H58.3899ZM60.9755 14.9933V21.7443H59.8968C59.0799 21.7443 58.7071 21.5616 58.5326 20.7811C57.8585 21.5616 56.9701 21.8605 55.836 21.8605C54.099 21.8605 52.822 20.8558 52.822 18.9293C52.822 16.8866 54.3845 15.8901 56.526 15.8901C57.2874 15.8901 57.8188 15.9649 58.3899 16.1143V15.1843C58.3899 14.2958 57.9298 13.8308 56.6925 13.8308C55.717 13.8308 54.9001 14.1464 54.2814 14.5948H53.5517V12.6849C54.44 12.2614 55.5187 11.8711 57.097 11.8711C59.6589 11.8628 60.9755 12.7513 60.9755 14.9933ZM51.5134 10.2851V21.7526H48.9277V8.75722H50.5061C51.3706 8.75722 51.5134 8.98142 51.5134 10.2851Z" fill="#202E59"/>
</svg>
