<svg width="40" height="40" viewBox="0 0 40 40" fill="none" xmlns="http://www.w3.org/2000/svg">
<path d="M22.2626 34.8274C22.8269 34.6137 23.2763 34.1863 23.5228 33.6384C23.7694 33.085 23.7859 32.4713 23.5667 31.9069L21.7256 27.0959C21.5119 26.5315 21.0845 26.0877 20.5311 25.8411C19.9776 25.5945 19.3639 25.5781 18.7996 25.7918L16.8105 26.5534C16.3448 26.7288 15.8297 26.5918 15.5174 26.2028C13.2269 23.337 12.1091 20.4548 12.005 17.1178C11.9886 16.6356 12.2845 16.1973 12.7338 16.0219L14.7557 15.2493C15.3201 15.0356 15.7639 14.6082 16.0105 14.0548C16.2571 13.5014 16.2735 12.8877 16.0598 12.3233L14.2187 7.51236C13.9995 6.94797 13.5776 6.50414 13.0242 6.25756C12.7283 6.12606 12.416 6.0603 12.1037 6.0603C11.8297 6.0603 11.5557 6.10962 11.2927 6.21373L7.92831 7.5014C6.61873 8.00551 5.67078 9.12332 5.39133 10.4987C4.55297 14.6137 5.0516 19.4521 6.79407 24.1206C8.58037 28.9096 11.4954 32.9808 15.0078 35.5836C16.1256 36.411 17.605 36.6137 18.9037 36.1151L22.268 34.8274H22.2626Z" fill="#203665"/>
<path d="M18.2145 21.5616C18.4994 22.1314 19.0693 22.4821 19.7049 22.4821H27.0255C29.3816 22.4821 31.5898 21.5616 33.2501 19.8903C34.883 18.2465 35.7707 16.0766 35.7597 13.7807C35.7433 11.5013 34.8501 9.35335 33.2446 7.73691C31.6392 6.12047 29.4967 5.21636 27.2172 5.18896C27.1789 5.18896 27.1405 5.18896 27.1022 5.18896C24.8282 5.18896 22.6748 6.07664 21.0419 7.69307C19.3816 9.33691 18.4666 11.5177 18.4666 13.8355C18.4666 15.315 18.8446 16.7725 19.5679 18.0547L19.6337 18.1698L18.3844 19.8081C18.0008 20.3122 17.935 20.9807 18.2145 21.5506V21.5616ZM19.4803 20.652L20.872 18.8273C21.1296 18.4876 21.157 18.0164 20.9323 17.6492C20.2255 16.504 19.8529 15.1835 19.8529 13.8355C19.8529 11.8849 20.62 10.0547 22.0172 8.6739C23.3926 7.31499 25.2008 6.56979 27.1186 6.56979H27.2063C31.1405 6.6191 34.357 9.85746 34.3844 13.7917C34.3953 15.7205 33.6501 17.5451 32.2748 18.9259C30.8775 20.3342 29.0145 21.1068 27.0255 21.1068H19.7049C19.5515 21.1068 19.4803 21.0081 19.4529 20.9479C19.4255 20.8876 19.3871 20.7725 19.4803 20.652Z" fill="#203665"/>
</svg>
